<svg xmlns="http://www.w3.org/2000/svg" width="138.2" height="50" viewBox="0 0 138.2 50"><path fill="#275b80" d="M36 7.9a10.1 10.1 0 0 1-3.4.9 6.3 6.3 0 0 0 2.6-3.2 12.5 12.5 0 0 1-3.6 1.5 5.9 5.9 0 0 0-4.4-1.8 5.8 5.8 0 0 0-5.8 5.8 5.3 5.3 0 0 0 .1 1.3A17.4 17.4 0 0 1 9.3 6.3a6.7 6.7 0 0 0-.6 2.8 6.2 6.2 0 0 0 2.6 4.9 5.9 5.9 0 0 1-2.6-.7 5.8 5.8 0 0 0 4.6 5.7 8 8 0 0 1-1.5.3h-1.1a5.4 5.4 0 0 0 5.4 4 11.9 11.9 0 0 1-7.3 2.5H7.3a16.8 16.8 0 0 0 9 2.6c10.8 0 16.6-8.9 16.6-16.6V11A15.1 15.1 0 0 0 36 7.9zm47.5 8.9A14.3 14.3 0 1 0 67 30.9v-10h-3.5v-4.1H67v-3.1c0-3.5 2.1-5.5 5.4-5.5a16.6 16.6 0 0 1 3.2.3V12h-1.8a2.1 2.1 0 0 0-2.4 1.8v3h3.9l-.7 4.2h-3.3v10a14.6 14.6 0 0 0 12.2-14.2zm33.1-14.3h-5.8a12.9 12.9 0 0 0-3.5.5 8.2 8.2 0 0 0-2.5 1.6 6 6 0 0 0-1.6 2.5 8.9 8.9 0 0 0-.6 3.5c-.1 1.5-.1 1.9-.1 5.8s0 4.4.1 5.8a13.6 13.6 0 0 0 .7 3.5 6.1 6.1 0 0 0 1.5 2.6 6 6 0 0 0 2.5 1.6 13.6 13.6 0 0 0 3.5.7h11.7a13.6 13.6 0 0 0 3.5-.7 6 6 0 0 0 2.5-1.6 6 6 0 0 0 1.6-2.5 10.4 10.4 0 0 0 .7-3.5c.1-1.5.1-1.9.1-5.8s0-4.4-.1-5.8a13.6 13.6 0 0 0-.7-3.5 6.1 6.1 0 0 0-1.5-2.6 6 6 0 0 0-2.5-1.6 10.4 10.4 0 0 0-3.5-.7zm0 2.6h5.8a7.5 7.5 0 0 1 2.6.5 2.9 2.9 0 0 1 1.6 1.1 5.6 5.6 0 0 1 1.6 4.2c.1 1.5.1 1.9.1 5.7s0 4.3-.1 5.8a11.9 11.9 0 0 1-.5 2.6 4.5 4.5 0 0 1-2.7 2.7 5.8 5.8 0 0 1-2.6.5h-11.6a11.9 11.9 0 0 1-2.6-.5 2.9 2.9 0 0 1-1.6-1.1 5.6 5.6 0 0 1-1.6-4.2c0-1.5-.1-1.9-.1-5.7s0-4.3.1-5.8a5 5 0 0 1 .5-2.7 4.5 4.5 0 0 1 2.7-2.7 5.8 5.8 0 0 1 2.6-.5zm0 4.3a7.4 7.4 0 1 0 7.4 7.4 7.4 7.4 0 0 0-7.4-7.4zm0 12.1a4.7 4.7 0 1 1 4.7-4.7 4.6 4.6 0 0 1-4.7 4.7zm9.3-12.4a1.6 1.6 0 1 1-1.6-1.6 1.6 1.6 0 0 1 1.6 1.6z"/><path fill="none" d="M9.2 37.5h120.1v11.1H9.2z"/><path fill="#275b80" d="M53.2 39a1.6 1.6 0 0 1 1.5.9l.2-.8h.9l-.8 3.7a.8.8 0 0 0-.1.4v.2h.2a1.4 1.4 0 0 0 .9-.4 3.6 3.6 0 0 0 .7-1 3.1 3.1 0 0 0 .3-1.3 2.7 2.7 0 0 0-1-2.2 3.5 3.5 0 0 0-2.5-.9 3.9 3.9 0 0 0-4 4.2 3.4 3.4 0 0 0 1.1 2.8 4.8 4.8 0 0 0 3.1 1 6.5 6.5 0 0 0 2.1-.4l.6-.4a2.3 2.3 0 0 0 .7-.7h.9a2.6 2.6 0 0 1-1 1.1 3.6 3.6 0 0 1-1.5.8 5.9 5.9 0 0 1-5.4-.9 4 4 0 0 1-1.3-3.1 4.8 4.8 0 0 1 .7-2.6 4.2 4.2 0 0 1 1.7-1.8 4.9 4.9 0 0 1 2.5-.6 4.4 4.4 0 0 1 3 1.1 3.4 3.4 0 0 1 1.2 2.7 3.4 3.4 0 0 1-.5 1.7 2.8 2.8 0 0 1-1.1 1.3 2.4 2.4 0 0 1-1.4.5l-.7-.2a.8.8 0 0 1-.2-.6l-.8.6-.7.2a1.6 1.6 0 0 1-1.3-.6 3 3 0 0 1-.5-1.6 2.8 2.8 0 0 1 .4-1.5 2.7 2.7 0 0 1 .9-1.2 1.9 1.9 0 0 1 1.2-.4zm-1.6 3.2a1.7 1.7 0 0 0 .3 1 1.2 1.2 0 0 0 .8.4 1.7 1.7 0 0 0 1.2-.8 3.1 3.1 0 0 0 .5-1.7 1.7 1.7 0 0 0-.3-1 .9.9 0 0 0-.8-.4 1.7 1.7 0 0 0-1.2.8 3.1 3.1 0 0 0-.5 1.7zm7.4-2.4h.9v5.1a1.8 1.8 0 0 1-.9 1.7l-.7-.7a.9.9 0 0 0 .7-1zm.4-1.9a.5.5 0 0 1 .4.2c.1.1.2.2.2.3a.7.7 0 0 1-.6.6l-.3-.2a.5.5 0 0 1-.2-.4c0-.1.1-.2.2-.3zm1.8-.4h.9v6.8h-.9zm2.7.4l.3.2c.1.1.2.2.2.3a.5.5 0 0 1-.2.4l-.3.2a.7.7 0 0 1-.6-.6c0-.1.1-.2.2-.3a.5.5 0 0 1 .4-.2zm-.5 1.9h.9v4.5h-.9zm5.2-2.3h.9v6.8h-1.9a2.1 2.1 0 0 1-1.6-.6 2.7 2.7 0 0 1 0-3.4 2.3 2.3 0 0 1 1.6-.6l1 .2zm0 6v-2.8a1.3 1.3 0 0 0-.8-.2 1.4 1.4 0 0 0-1.1.4 1.6 1.6 0 0 0-.4 1.2 1.5 1.5 0 0 0 .3 1c.2.2.3.3.5.3h1.5zm5.9-1.4h-3.1a1.2 1.2 0 0 0 .4 1 1.3 1.3 0 0 0 1 .4 2.8 2.8 0 0 0 1.6-.5v.8a1.2 1.2 0 0 1-.8.4l-.9.2a1.6 1.6 0 0 1-1.2-.4 1.4 1.4 0 0 1-.7-.8 2.1 2.1 0 0 1-.3-1.2 2.5 2.5 0 0 1 .6-1.7 1.8 1.8 0 0 1 1.5-.6 1.8 1.8 0 0 1 1.4.6 2.9 2.9 0 0 1 .5 1.7zm-3.1-.5h2.2a1 1 0 0 0-.3-.8.9.9 0 0 0-.7-.3 1 1 0 0 0-.8.3 1 1 0 0 0-.4.8zm3.9 2.4v-1l.7.4.7.2h.5a.5.5 0 0 0 .2-.4c0-.1-.1-.2-.2-.3l-.5-.4a2.7 2.7 0 0 1-1.1-.8 1.1 1.1 0 0 1 .1-1.6 1.7 1.7 0 0 1 1-.3 2.5 2.5 0 0 1 1.4.4v.8a2.1 2.1 0 0 0-1.3-.5h-.4c-.1.1-.2.2-.2.3s.1.2.2.3l.5.3.3.2c.7.4 1.1.9 1.1 1.4a1 1 0 0 1-.4.9 2.1 2.1 0 0 1-1.1.4h-.7zm4.5-6.1l.4.2a.4.4 0 0 1 .1.3c0 .2 0 .3-.1.4l-.4.2-.4-.2c-.1-.1-.1-.2-.1-.4a.4.4 0 0 1 .1-.3zm-.4 1.9h.8v4.5h-.8zm1.9 1.5a1.6 1.6 0 0 1 .5-1.1 2.2 2.2 0 0 1 1.5-.4h1.8v.7h-.9l.4.5a4.3 4.3 0 0 1 .1.5 2.5 2.5 0 0 1-.2.7c-.2.2-.3.4-.5.5l-1.1.3c-.3 0-.5.1-.5.3s.1.2.2.3l.7.2 1 .3c.2 0 .3.1.5.3a1.1 1.1 0 0 1 .3.8 1.2 1.2 0 0 1-.6 1 2.4 2.4 0 0 1-1.5.4 3.3 3.3 0 0 1-1.5-.4 1.2 1.2 0 0 1-.6-1c0-.6.4-1 1.1-1.2a.7.7 0 0 1-.4-.6.4.4 0 0 1 .2-.4l.5-.2a1.5 1.5 0 0 1-1-1.5zm1.5 3.2l-.8.2a.5.5 0 0 0-.3.5c0 .4.5.7 1.3.7l.9-.2a.5.5 0 0 0 .3-.5.5.5 0 0 0-.4-.5zm.2-3.9c-.3 0-.5 0-.6.2a.9.9 0 0 0-.3.6 1.4 1.4 0 0 0 .2.6l.7.2.6-.2a.7.7 0 0 0 0-1.2.7.7 0 0 0-.6-.2zm3.7-.8v.6a1.6 1.6 0 0 1 1.3-.7l.8.2.6.6a3.7 3.7 0 0 1 .2 1.2v2.6h-.9v-2.6a2.5 2.5 0 0 0-.2-1 .9.9 0 0 0-.7-.3 1.4 1.4 0 0 0-1.1.7v3.2h-.9v-4.5z"/></svg>