<svg enable-background="new 0 0 216 50" viewBox="0 0 216 50" xmlns="http://www.w3.org/2000/svg"><g fill="#fff"><path d="m44.7 17c-1.2.5-2.4.9-3.7 1 1.3-.8 2.3-2.1 2.9-3.5-1.2.8-2.6 1.3-4 1.6-1.2-1.3-3-2-4.8-2-3.5 0-6.4 2.9-6.4 6.4 0 .5 0 1 .1 1.4-5.2-.3-10.1-2.7-13.4-6.7-.5 1-.8 2-.8 3.1 0 2.1 1.1 4.1 2.9 5.4-1 0-2-.3-2.9-.8v.1c0 3 2.1 5.7 5.1 6.3-.6.2-1.1.2-1.7.3-.4 0-.8 0-1.2-.1.8 2.7 3.2 4.5 6 4.4-2.3 1.8-5.1 2.8-8 2.8-.5 0-1.1 0-1.6-.1 3 1.9 6.4 2.9 9.9 2.9 11.9 0 18.3-9.8 18.3-18.3v-.8c1.3-1.1 2.4-2.2 3.3-3.4z"/><path d="m97 26.7c0-8.7-7.1-15.7-15.8-15.6-8.7 0-15.7 7.1-15.6 15.8 0 7.7 5.6 14.2 13.2 15.4v-11h-3.9v-4.5h3.9v-3.4c0-3.9 2.3-6.1 5.9-6.1 1.2 0 2.4.1 3.5.3v3.9h-2c-1.3-.2-2.4.7-2.6 2v.5 2.8h4.3l-.7 4.6h-3.6v11c7.7-1.3 13.4-7.9 13.4-15.7z"/><path d="m133.5 11c-4.3 0-4.8 0-6.4.1-1.3 0-2.7.2-3.9.6-1 .4-2 1-2.7 1.8-.8.8-1.4 1.7-1.8 2.7-.5 1.3-.7 2.6-.7 3.9-.1 1.6-.1 2.1-.1 6.4s0 4.8.1 6.4c.1 1.3.3 2.6.8 3.8.3 1.1.9 2.1 1.7 2.9s1.7 1.4 2.7 1.8c1.2.4 2.5.7 3.8.8h6.5c4.3 0 4.8 0 6.4-.1 1.3-.1 2.6-.3 3.8-.8 1.1-.3 2-1 2.7-1.8.8-.8 1.4-1.7 1.8-2.7.5-1.2.7-2.5.8-3.8.1-1.6.1-2.1.1-6.4s0-4.8-.1-6.4c-.1-1.3-.3-2.6-.8-3.8-.3-1.1-.9-2.1-1.7-2.9s-1.7-1.4-2.7-1.8c-1.2-.5-2.5-.7-3.8-.8h-6.5zm0 2.9c4.2 0 4.7 0 6.4.1 1 0 2 .2 2.9.5.7.2 1.3.6 1.8 1.2.5.5.9 1.1 1.2 1.8.4.9.6 1.9.5 2.9.1 1.7.1 2.1.1 6.3s0 4.7-.1 6.4c-.1 1-.2 1.9-.5 2.9-.5 1.4-1.6 2.5-3 3-.9.4-1.9.6-2.9.5-1.7.1-2.1.1-6.4.1s-4.7 0-6.4-.1c-1-.1-1.9-.2-2.9-.5-.7-.2-1.3-.6-1.8-1.2-.5-.5-.9-1.1-1.2-1.8-.4-.9-.6-1.9-.5-2.9 0-1.7-.1-2.1-.1-6.3s0-4.7.1-6.4c-.1-1 .1-2.1.5-3 .5-1.4 1.6-2.5 3-3 .9-.4 1.9-.6 2.9-.5 2.2-.1 4.3-.1 6.4 0zm0 4.7c-4.5 0-8.1 3.6-8.1 8.1s3.6 8.1 8.1 8.1 8.1-3.6 8.1-8.1-3.6-8.1-8.1-8.1zm0 13.3c-2.9 0-5.2-2.3-5.2-5.2s2.3-5.2 5.2-5.2 5.2 2.3 5.2 5.2c.1 2.9-2.3 5.2-5.2 5.2zm10.2-13.6c0 1-.8 1.8-1.8 1.8s-1.8-.8-1.8-1.8c0-1 .8-1.8 1.8-1.8s1.8.8 1.8 1.8z"/><path d="m202.7 34.5c-3-3.2-5.9-6.4-9.1-9.8 3.1-2.4 6.1-4.7 9.1-7z"/><path d="m181 26.6 5.3 4.2c1.8-1.4 3.5-2.8 5.3-4.2 3.6 4 7.2 7.8 11 12h-32.6c3.8-4.1 7.3-8 11-12z"/><path d="m202.5 14.2c-5.3 4.3-10.3 8.4-15.4 12.4-.5.3-1.1.3-1.6 0-5.1-4-10.1-8.2-15.4-12.4z"/><path d="m170 17.6c3 2.5 5.9 4.8 8.8 7.1-2.9 3.2-5.8 6.4-8.8 9.7z"/></g></svg>