<svg xmlns="http://www.w3.org/2000/svg"><symbol id="socials" viewBox="0 0 138.2 50"><style>.st0{fill:#275b80}.st1{fill:none}.st2{font-family:&apos;GillSans&apos;}.st3{font-size:10px}</style><path d="M36 7.9c-1.1.5-2.2.8-3.4.9 1.2-.7 2.1-1.9 2.6-3.2-1.1.7-2.4 1.2-3.6 1.5-1.1-1.2-2.7-1.8-4.4-1.8-3.2 0-5.8 2.6-5.8 5.8 0 .5 0 .9.1 1.3-4.7-.3-9.2-2.5-12.2-6.1-.4.9-.6 1.8-.6 2.8 0 1.9 1 3.7 2.6 4.9-.9 0-1.8-.3-2.6-.7v.1c0 2.7 1.9 5.2 4.6 5.7-.5.2-1 .2-1.5.3-.4 0-.7 0-1.1-.1.7 2.5 2.9 4.1 5.4 4-2.1 1.6-4.6 2.5-7.3 2.5-.5 0-1 0-1.5-.1 2.7 1.7 5.8 2.6 9 2.6 10.8 0 16.6-8.9 16.6-16.6V11c1.3-1 2.3-2 3.1-3.1zm47.5 8.9c0-7.9-6.4-14.3-14.3-14.2-8 0-14.3 6.4-14.2 14.3 0 7 5.1 12.9 12 14v-10h-3.5v-4.1H67v-3.1c0-3.5 2.1-5.5 5.4-5.5 1.1 0 2.2.1 3.2.3V12h-1.8c-1.2-.2-2.2.6-2.4 1.8v3h3.9l-.7 4.2h-3.3v10c7-1.2 12.2-7.2 12.2-14.2zm33.1-14.3c-3.9 0-4.4 0-5.8.1-1.2 0-2.5.2-3.5.5-.9.4-1.8.9-2.5 1.6-.7.7-1.3 1.5-1.6 2.5-.5 1.2-.6 2.4-.6 3.5-.1 1.5-.1 1.9-.1 5.8s0 4.4.1 5.8c.1 1.2.3 2.4.7 3.5.3 1 .8 1.9 1.5 2.6.7.7 1.5 1.3 2.5 1.6 1.1.4 2.3.6 3.5.7h5.9c3.9 0 4.4 0 5.8-.1 1.2-.1 2.4-.3 3.5-.7 1-.3 1.8-.9 2.5-1.6.7-.7 1.3-1.5 1.6-2.5.5-1.1.6-2.3.7-3.5.1-1.5.1-1.9.1-5.8s0-4.4-.1-5.8c-.1-1.2-.3-2.4-.7-3.5-.3-1-.8-1.9-1.5-2.6-.7-.7-1.5-1.3-2.5-1.6-1.1-.5-2.3-.6-3.5-.7l-6 .2zm0 2.6c3.8 0 4.3 0 5.8.1.9 0 1.8.2 2.6.5.6.2 1.2.5 1.6 1.1.5.5.8 1 1.1 1.6.4.8.5 1.7.5 2.6.1 1.5.1 1.9.1 5.7s0 4.3-.1 5.8c-.1.9-.2 1.7-.5 2.6-.5 1.3-1.5 2.3-2.7 2.7-.8.4-1.7.5-2.6.5-1.5.1-1.9.1-5.8.1s-4.3 0-5.8-.1c-.9-.1-1.7-.2-2.6-.5-.6-.2-1.2-.5-1.6-1.1-.5-.5-.8-1-1.1-1.6-.4-.8-.5-1.7-.5-2.6 0-1.5-.1-1.9-.1-5.7s0-4.3.1-5.8c-.1-.9.1-1.9.5-2.7.5-1.3 1.5-2.3 2.7-2.7.8-.4 1.7-.5 2.6-.5 2-.1 3.9-.1 5.8 0zm0 4.3c-4.1 0-7.4 3.3-7.4 7.4s3.3 7.4 7.4 7.4c4.1 0 7.4-3.3 7.4-7.4s-3.3-7.4-7.4-7.4zm0 12.1c-2.6 0-4.7-2.1-4.7-4.7s2.1-4.7 4.7-4.7 4.7 2.1 4.7 4.7c.1 2.6-2 4.7-4.7 4.7zm9.3-12.4c0 .9-.7 1.6-1.6 1.6s-1.6-.7-1.6-1.6c0-.9.7-1.6 1.6-1.6s1.6.7 1.6 1.6z" class="st0"/><path d="M9.2 37.5h120.1v11.1H9.2z" class="st1"/><text class="st0 st2 st3" transform="translate(48.294 44.287)">@jlidesign</text></symbol></svg>